<svg viewBox="0 0 24 24" width="24px" height="24px" xmlns="http://www.w3.org/2000/svg">
  <defs></defs>
  <path d="M 16.944 16.385 C 17.016 16.907 16.818 17.406 16.461 17.719 C 16.394 17.778 16.322 17.829 16.245 17.874 C 16.176 17.913 16.103 17.947 16.026 17.974 C 15.852 18.036 15.671 18.059 15.493 18.047 C 15.487 18.047 15.483 18.047 15.478 18.046 C 15.119 18.021 14.773 17.857 14.528 17.596 C 14.13 17.174 14.143 16.65 14.147 16.54 C 14.147 16.487 14.149 16.436 14.156 16.385 L 9.838 16.385 C 9.844 16.436 9.846 16.487 9.846 16.54 C 9.852 16.65 9.863 17.174 9.465 17.596 C 9.22 17.857 8.875 18.021 8.515 18.046 C 8.51 18.047 8.506 18.047 8.501 18.047 C 8.323 18.059 8.141 18.036 7.967 17.974 C 7.89 17.947 7.817 17.913 7.748 17.874 C 7.671 17.829 7.599 17.778 7.532 17.719 C 7.532 17.719 7.532 17.719 7.532 17.719 C 7.175 17.406 6.977 16.907 7.05 16.385 L 5.494 16.385 C 5.504 16.347 5.516 16.308 5.526 16.27 C 5.719 15.557 5.913 14.845 6.106 14.132 L 6.233 14.126 L 7.719 14.06 C 7.786 14.058 7.837 14.002 7.835 13.936 C 7.831 13.869 7.776 13.818 7.708 13.821 L 6.299 13.883 L 6.173 13.889 C 6.243 13.629 6.314 13.37 6.384 13.111 L 6.506 13.121 L 7.7 13.22 L 7.709 13.22 C 7.772 13.22 7.825 13.172 7.83 13.11 C 7.836 13.045 7.786 12.987 7.72 12.981 L 6.57 12.886 L 6.447 12.875 C 6.519 12.613 6.591 12.349 6.662 12.087 L 6.776 12.131 L 7.907 12.564 C 7.921 12.569 7.937 12.572 7.951 12.572 C 8 12.572 8.045 12.543 8.064 12.496 C 8.088 12.434 8.057 12.365 7.994 12.341 L 6.839 11.897 L 6.726 11.855 C 7.353 9.546 7.98 7.238 8.607 4.93 C 9.06 6.31 9.512 7.69 9.965 9.07 C 10.284 8.909 11.029 8.58 11.993 8.595 L 12 8.595 C 12.964 8.58 13.709 8.909 14.029 9.07 C 14.481 7.69 14.933 6.31 15.386 4.93 C 16.013 7.238 16.641 9.546 17.268 11.855 L 17.154 11.897 L 15.999 12.341 C 15.937 12.365 15.905 12.434 15.929 12.496 C 15.948 12.543 15.994 12.572 16.042 12.572 C 16.057 12.572 16.071 12.569 16.086 12.564 L 17.218 12.131 L 17.332 12.087 C 17.402 12.349 17.474 12.613 17.546 12.875 L 17.423 12.886 L 16.273 12.981 C 16.207 12.987 16.157 13.045 16.163 13.11 C 16.168 13.172 16.222 13.22 16.283 13.22 L 16.293 13.22 L 17.487 13.121 L 17.61 13.111 C 17.68 13.37 17.75 13.629 17.82 13.889 L 17.694 13.883 L 16.285 13.821 C 16.216 13.818 16.161 13.869 16.159 13.936 C 16.155 14.002 16.207 14.058 16.273 14.06 L 17.76 14.126 L 17.887 14.132 C 18.08 14.845 18.274 15.557 18.467 16.27 C 18.478 16.308 18.489 16.347 18.499 16.385 L 16.944 16.385 Z" fill="#F4E041" style=""></path>
  <path d="M 18.657 16.505 L 18.625 16.39 L 18.593 16.269 L 18.013 14.137 L 17.887 14.132 L 17.76 14.126 L 18.341 16.265 L 16.805 16.265 L 16.824 16.401 C 16.881 16.812 16.758 17.211 16.51 17.499 C 16.463 17.554 16.411 17.605 16.355 17.651 C 16.338 17.665 16.321 17.679 16.304 17.691 C 16.267 17.719 16.229 17.743 16.191 17.766 C 16.126 17.804 16.058 17.836 15.985 17.861 C 15.866 17.903 15.741 17.926 15.616 17.93 C 15.575 17.931 15.533 17.93 15.493 17.927 C 15.453 17.925 15.412 17.92 15.373 17.913 C 15.09 17.869 14.82 17.731 14.616 17.514 C 14.279 17.156 14.26 16.717 14.268 16.54 C 14.268 16.488 14.27 16.442 14.276 16.398 L 14.291 16.265 L 9.702 16.265 L 9.718 16.398 C 9.722 16.442 9.725 16.488 9.725 16.544 C 9.732 16.717 9.714 17.156 9.376 17.514 C 9.173 17.731 8.903 17.869 8.621 17.913 C 8.581 17.92 8.54 17.925 8.501 17.927 C 8.46 17.93 8.419 17.931 8.377 17.93 C 8.252 17.926 8.127 17.903 8.007 17.861 C 7.936 17.836 7.867 17.804 7.804 17.767 L 7.803 17.767 C 7.764 17.744 7.726 17.719 7.69 17.691 C 7.671 17.679 7.654 17.665 7.637 17.651 C 7.582 17.605 7.53 17.554 7.482 17.499 C 7.235 17.211 7.112 16.812 7.17 16.401 L 7.188 16.265 L 5.652 16.265 L 6.233 14.126 L 6.106 14.132 L 5.979 14.137 L 5.401 16.269 L 5.368 16.39 L 5.336 16.505 L 6.916 16.505 C 6.876 17.209 7.284 17.86 7.925 18.087 C 8.484 18.284 9.138 18.12 9.554 17.679 C 9.953 17.253 9.976 16.736 9.967 16.54 C 9.967 16.528 9.966 16.516 9.966 16.505 L 14.026 16.505 L 14.026 16.535 C 14.017 16.736 14.04 17.253 14.439 17.679 C 14.738 17.996 15.158 18.169 15.579 18.169 C 15.744 18.169 15.909 18.142 16.067 18.087 C 16.708 17.86 17.116 17.209 17.077 16.505 L 18.657 16.505 Z M 6.384 13.111 L 6.261 13.101 L 6.046 13.895 L 6.173 13.889 L 6.299 13.883 L 6.506 13.121 L 6.384 13.111 Z M 15.397 4.509 L 15.271 4.893 C 14.893 6.044 14.515 7.195 14.138 8.346 L 13.956 8.901 C 13.496 8.687 12.813 8.461 12 8.475 L 11.994 8.475 C 11.179 8.462 10.497 8.687 10.037 8.901 L 9.855 8.346 C 9.478 7.195 9.1 6.044 8.722 4.893 L 8.596 4.509 L 6.612 11.811 L 6.726 11.855 L 6.839 11.897 L 8.618 5.35 C 8.954 6.374 9.289 7.397 9.624 8.42 L 9.894 9.24 L 10.019 9.176 C 10.452 8.958 11.148 8.699 11.993 8.715 L 12.003 8.715 C 12.85 8.701 13.541 8.958 13.973 9.176 L 14.1 9.24 L 14.368 8.42 C 14.703 7.397 15.039 6.374 15.375 5.35 L 17.154 11.897 L 17.268 11.855 L 17.381 11.811 L 15.397 4.509 Z M 6.549 12.043 L 6.325 12.865 L 6.447 12.875 L 6.57 12.886 L 6.776 12.131 L 6.662 12.087 L 6.549 12.043 Z M 17.445 12.044 L 17.332 12.087 L 17.218 12.131 L 17.423 12.886 L 17.546 12.875 L 17.668 12.866 L 17.445 12.044 Z M 17.731 13.101 L 17.61 13.111 L 17.487 13.121 L 17.694 13.883 L 17.82 13.889 L 17.947 13.895 L 17.731 13.101 Z" fill="black" fill-opacity="0.87" style=""></path>
  <path d="M 12.955 12.363 C 12.813 12.363 12.698 12.249 12.698 12.109 L 12.698 10.566 C 12.698 10.425 12.813 10.311 12.955 10.311 C 13.097 10.311 13.212 10.425 13.212 10.566 L 13.212 12.109 C 13.212 12.249 13.097 12.363 12.955 12.363 Z" fill="black" fill-opacity="0.87" style=""></path>
  <path d="M 11.189 12.094 C 11.048 12.109 10.921 12.007 10.906 11.867 L 10.781 10.703 C 10.765 10.563 10.868 10.438 11.01 10.423 C 11.151 10.408 11.278 10.509 11.292 10.649 L 11.417 11.814 C 11.433 11.954 11.33 12.079 11.189 12.094 Z" fill="black" fill-opacity="0.87" style=""></path>
  <path d="M 8.063 12.496 C 8.045 12.543 7.999 12.572 7.95 12.572 C 7.936 12.572 7.92 12.569 7.906 12.564 L 6.775 12.131 L 6.661 12.087 L 6.547 12.043 L 4.902 11.414 C 4.839 11.39 4.808 11.32 4.832 11.259 C 4.857 11.197 4.927 11.167 4.989 11.191 L 6.611 11.811 L 6.724 11.855 L 6.838 11.897 L 7.994 12.341 C 8.056 12.365 8.087 12.434 8.063 12.496 Z" fill="black" fill-opacity="0.87" style=""></path>
  <path d="M 7.829 13.11 C 7.824 13.172 7.771 13.22 7.709 13.22 L 7.698 13.22 L 6.505 13.121 L 6.383 13.111 L 6.26 13.101 L 4.489 12.954 C 4.422 12.949 4.373 12.891 4.379 12.824 C 4.384 12.759 4.441 12.709 4.509 12.715 L 6.324 12.865 L 6.447 12.875 L 6.569 12.886 L 7.719 12.981 C 7.785 12.986 7.835 13.045 7.829 13.11 Z" fill="black" fill-opacity="0.87" style=""></path>
  <path d="M 7.834 13.936 C 7.836 14.002 7.785 14.058 7.718 14.06 L 6.232 14.126 L 6.105 14.132 L 5.978 14.138 L 4.5 14.204 L 4.495 14.204 C 4.431 14.204 4.377 14.154 4.375 14.089 C 4.371 14.022 4.423 13.967 4.489 13.964 L 6.045 13.895 L 6.172 13.89 L 6.298 13.884 L 7.707 13.821 C 7.775 13.818 7.83 13.869 7.834 13.936 Z" fill="black" fill-opacity="0.87" style=""></path>
  <path d="M 19.089 11.414 L 17.444 12.044 L 17.331 12.087 L 17.217 12.131 L 16.085 12.564 C 16.07 12.569 16.056 12.572 16.041 12.572 C 15.993 12.572 15.947 12.543 15.928 12.496 C 15.904 12.434 15.936 12.365 15.998 12.341 L 17.154 11.897 L 17.267 11.855 L 17.38 11.811 L 19.002 11.191 C 19.063 11.167 19.134 11.197 19.158 11.259 C 19.183 11.32 19.151 11.39 19.089 11.414 Z" fill="black" fill-opacity="0.87" style=""></path>
  <path d="M 19.612 12.824 C 19.617 12.891 19.568 12.949 19.501 12.954 L 17.73 13.101 L 17.608 13.111 L 17.485 13.121 L 16.292 13.22 L 16.281 13.22 C 16.219 13.22 16.166 13.172 16.161 13.11 C 16.155 13.045 16.205 12.987 16.272 12.981 L 17.421 12.886 L 17.544 12.875 L 17.666 12.866 L 19.481 12.715 C 19.548 12.709 19.607 12.759 19.612 12.824 Z" fill="black" fill-opacity="0.87" style=""></path>
  <path d="M 19.616 14.089 C 19.614 14.153 19.56 14.204 19.495 14.204 L 19.49 14.204 L 18.011 14.137 L 17.885 14.132 L 17.758 14.126 L 16.273 14.06 C 16.205 14.058 16.153 14.002 16.157 13.936 C 16.159 13.869 16.215 13.818 16.283 13.821 L 17.693 13.883 L 17.819 13.889 L 17.946 13.895 L 19.5 13.964 C 19.568 13.967 19.62 14.022 19.616 14.089 Z" fill="black" fill-opacity="0.87" style=""></path>
  <path d="M 15.443 16.898 C 15.488 17.03 15.529 17.19 15.541 17.374 C 15.557 17.59 15.529 17.779 15.492 17.927 L 15.443 16.898 Z" fill="white" style=""></path>
  <path d="M 15.492 18.047 C 15.482 18.047 15.473 18.046 15.463 18.044 C 15.398 18.028 15.359 17.963 15.375 17.899 C 15.417 17.728 15.433 17.554 15.421 17.382 C 15.411 17.233 15.379 17.083 15.329 16.937 C 15.306 16.875 15.34 16.807 15.403 16.785 C 15.467 16.764 15.535 16.797 15.557 16.86 C 15.614 17.026 15.65 17.196 15.662 17.366 C 15.676 17.563 15.658 17.761 15.609 17.957 C 15.595 18.01 15.546 18.047 15.492 18.047 Z" fill="black" fill-opacity="0.87" style=""></path>
  <path d="M 16.231 16.85 C 16.305 16.969 16.369 17.112 16.389 17.277 C 16.413 17.47 16.37 17.639 16.31 17.773 L 16.231 16.85 Z" fill="white" style=""></path>
  <path d="M 16.31 17.892 C 16.293 17.892 16.277 17.888 16.26 17.881 C 16.199 17.855 16.172 17.784 16.199 17.723 C 16.263 17.58 16.286 17.434 16.268 17.291 C 16.253 17.165 16.205 17.038 16.127 16.912 C 16.093 16.856 16.11 16.783 16.167 16.748 C 16.223 16.713 16.298 16.73 16.333 16.787 C 16.43 16.941 16.489 17.102 16.508 17.262 C 16.532 17.449 16.502 17.637 16.42 17.821 C 16.4 17.866 16.356 17.892 16.31 17.892 Z" fill="black" fill-opacity="0.87" style=""></path>
  <path d="M 8.55 16.898 C 8.504 17.03 8.463 17.19 8.451 17.374 C 8.436 17.59 8.463 17.779 8.501 17.927 L 8.55 16.898 Z" fill="white" style=""></path>
  <path d="M 8.5 18.047 C 8.445 18.047 8.396 18.01 8.382 17.956 C 8.334 17.761 8.316 17.563 8.33 17.366 C 8.341 17.195 8.377 17.025 8.435 16.859 C 8.457 16.797 8.526 16.763 8.589 16.785 C 8.652 16.806 8.685 16.874 8.664 16.937 C 8.613 17.083 8.581 17.232 8.571 17.381 C 8.559 17.553 8.575 17.728 8.617 17.898 C 8.633 17.962 8.593 18.027 8.529 18.043 C 8.519 18.046 8.509 18.047 8.5 18.047 Z" fill="black" fill-opacity="0.87" style=""></path>
  <path d="M 7.761 16.85 C 7.688 16.969 7.623 17.112 7.603 17.277 C 7.579 17.47 7.622 17.639 7.683 17.773 L 7.761 16.85 Z" fill="white" style=""></path>
  <path d="M 7.682 17.892 C 7.635 17.892 7.591 17.865 7.571 17.821 C 7.49 17.637 7.46 17.45 7.483 17.262 C 7.503 17.102 7.562 16.942 7.658 16.787 C 7.694 16.73 7.768 16.713 7.825 16.748 C 7.881 16.783 7.899 16.856 7.864 16.912 C 7.786 17.038 7.739 17.165 7.723 17.291 C 7.706 17.434 7.728 17.58 7.792 17.723 C 7.82 17.784 7.792 17.855 7.731 17.881 C 7.715 17.889 7.698 17.892 7.682 17.892 Z" fill="black" fill-opacity="0.87" style=""></path>
  <path d="M 6.213 16.487 L 1.952 16.487 C 1.881 16.487 1.823 16.442 1.823 16.385 C 1.823 16.329 1.881 16.284 1.952 16.284 L 6.213 16.284 C 6.284 16.284 6.342 16.329 6.342 16.385 C 6.342 16.442 6.284 16.487 6.213 16.487 Z" fill="black" fill-opacity="0.87" style=""></path>
  <path d="M 21.728 16.509 L 17.722 16.509 C 17.655 16.509 17.601 16.455 17.601 16.389 C 17.601 16.323 17.655 16.269 17.722 16.269 L 21.728 16.269 C 21.794 16.269 21.849 16.323 21.849 16.389 C 21.849 16.455 21.795 16.509 21.728 16.509 Z" fill="black" fill-opacity="0.87" style=""></path>
  <path d="M 13.227 14.305 C 13.14 14.528 12.939 14.771 12.683 14.808 C 12.446 14.841 12.229 14.716 12.072 14.521 C 12.057 14.562 12.039 14.604 12.013 14.648 C 11.975 14.717 11.764 15.061 11.411 15.061 L 11.402 15.061 C 11.067 15.054 10.776 14.752 10.726 14.357 C 10.717 14.29 10.764 14.23 10.83 14.223 C 10.896 14.214 10.957 14.261 10.965 14.326 C 11.004 14.632 11.22 14.818 11.406 14.821 L 11.411 14.821 C 11.633 14.821 11.786 14.56 11.803 14.53 C 11.886 14.382 11.885 14.23 11.869 14.13 C 11.864 14.111 11.859 14.093 11.855 14.074 C 11.621 14.101 11.421 14.021 11.384 13.873 C 11.342 13.705 11.529 13.514 11.802 13.448 C 12.075 13.381 12.33 13.462 12.372 13.629 C 12.407 13.768 12.286 13.921 12.09 14.008 C 12.096 14.031 12.102 14.058 12.107 14.086 C 12.205 14.408 12.456 14.597 12.649 14.571 C 12.799 14.549 12.939 14.377 13.001 14.219 C 13.053 14.084 13.046 13.958 13.03 13.876 C 13.019 13.812 13.062 13.748 13.128 13.737 C 13.194 13.725 13.256 13.768 13.268 13.833 C 13.289 13.946 13.299 14.118 13.227 14.305 Z" fill="black" fill-opacity="0.87" style=""></path>
</svg>