<!-- Generated by IcoMoon.io -->
<svg version="1.1" xmlns="http://www.w3.org/2000/svg" width="32" height="32" viewBox="0 0 32 32">
<title>favicon</title>
<path fill="#f4e041" d="M22.592 21.847c0.096 0.696-0.168 1.361-0.644 1.779-0.089 0.079-0.185 0.147-0.288 0.207-0.092 0.052-0.189 0.097-0.292 0.133-0.232 0.083-0.473 0.113-0.711 0.097-0.008 0-0.013 0-0.020-0.001-0.479-0.033-0.94-0.252-1.267-0.6-0.531-0.563-0.513-1.261-0.508-1.408 0-0.071 0.003-0.139 0.012-0.207h-5.757c0.008 0.068 0.011 0.136 0.011 0.207 0.008 0.147 0.023 0.845-0.508 1.408-0.327 0.348-0.787 0.567-1.267 0.6-0.007 0.001-0.012 0.001-0.019 0.001-0.237 0.016-0.48-0.015-0.712-0.097-0.103-0.036-0.2-0.081-0.292-0.133-0.103-0.060-0.199-0.128-0.288-0.207 0 0 0 0 0 0-0.476-0.417-0.74-1.083-0.643-1.779h-2.075c0.013-0.051 0.029-0.103 0.043-0.153 0.257-0.951 0.516-1.9 0.773-2.851l0.169-0.008 1.981-0.088c0.089-0.003 0.157-0.077 0.155-0.165-0.005-0.089-0.079-0.157-0.169-0.153l-2.047 0.091c0.093-0.347 0.188-0.692 0.281-1.037l1.767 0.145c0.084 0 0.155-0.064 0.161-0.147 0.008-0.087-0.059-0.164-0.147-0.172l-1.697-0.141c0.096-0.349 0.192-0.701 0.287-1.051l0.152 0.059 1.508 0.577c0.019 0.007 0.040 0.011 0.059 0.011 0.065 0 0.125-0.039 0.151-0.101 0.032-0.083-0.009-0.175-0.093-0.207l-1.54-0.592-0.151-0.056c0.836-3.079 1.672-6.156 2.508-9.233 0.604 1.84 1.207 3.68 1.811 5.52 0.425-0.215 1.419-0.653 2.704-0.633h0.009c1.285-0.020 2.279 0.419 2.705 0.633 0.603-1.84 1.205-3.68 1.809-5.52 0.836 3.077 1.673 6.155 2.509 9.233l-0.152 0.056-1.54 0.592c-0.083 0.032-0.125 0.124-0.093 0.207 0.025 0.063 0.087 0.101 0.151 0.101 0.020 0 0.039-0.004 0.059-0.011l1.661-0.636c0.093 0.349 0.189 0.701 0.285 1.051l-0.164 0.015-1.533 0.127c-0.088 0.008-0.155 0.085-0.147 0.172 0.007 0.083 0.079 0.147 0.16 0.147h0.013l1.756-0.145c0.093 0.345 0.187 0.691 0.28 1.037l-0.168-0.008-1.879-0.083c-0.092-0.004-0.165 0.064-0.168 0.153-0.005 0.088 0.064 0.163 0.152 0.165l2.152 0.096c0.257 0.951 0.516 1.9 0.773 2.851 0.015 0.051 0.029 0.103 0.043 0.153h-2.073z"></path>
<path fill="#000" opacity="0.87" d="M24.876 22.007l-0.043-0.153-0.043-0.161-0.773-2.843-0.168-0.007-0.169-0.008 0.775 2.852h-2.048l0.025 0.181c0.076 0.548-0.088 1.080-0.419 1.464-0.063 0.073-0.132 0.141-0.207 0.203-0.023 0.019-0.045 0.037-0.068 0.053-0.049 0.037-0.1 0.069-0.151 0.1-0.087 0.051-0.177 0.093-0.275 0.127-0.159 0.056-0.325 0.087-0.492 0.092-0.055 0.001-0.111 0-0.164-0.004-0.053-0.003-0.108-0.009-0.16-0.019-0.377-0.059-0.737-0.243-1.009-0.532-0.449-0.477-0.475-1.063-0.464-1.299 0-0.069 0.003-0.131 0.011-0.189l0.020-0.177h-6.119l0.021 0.177c0.005 0.059 0.009 0.12 0.009 0.195 0.009 0.231-0.015 0.816-0.465 1.293-0.271 0.289-0.631 0.473-1.007 0.532-0.053 0.009-0.108 0.016-0.16 0.019-0.055 0.004-0.109 0.005-0.165 0.004-0.167-0.005-0.333-0.036-0.493-0.092-0.095-0.033-0.187-0.076-0.271-0.125h-0.001c-0.052-0.031-0.103-0.064-0.151-0.101-0.025-0.016-0.048-0.035-0.071-0.053-0.073-0.061-0.143-0.129-0.207-0.203-0.329-0.384-0.493-0.916-0.416-1.464l0.024-0.181h-2.048l0.775-2.852-0.169 0.008-0.169 0.007-0.771 2.843-0.044 0.161-0.043 0.153h2.107c-0.053 0.939 0.491 1.807 1.345 2.109 0.745 0.263 1.617 0.044 2.172-0.544 0.532-0.568 0.563-1.257 0.551-1.519 0-0.016-0.001-0.032-0.001-0.047h5.413v0.040c-0.012 0.268 0.019 0.957 0.551 1.525 0.399 0.423 0.959 0.653 1.52 0.653 0.22 0 0.44-0.036 0.651-0.109 0.855-0.303 1.399-1.171 1.347-2.109h2.107zM8.512 17.481l-0.164-0.013-0.287 1.059 0.337-0.016 0.276-1.016-0.163-0.013zM20.529 6.012l-0.168 0.512c-0.504 1.535-1.008 3.069-1.511 4.604l-0.243 0.74c-0.613-0.285-1.524-0.587-2.608-0.568h-0.008c-1.087-0.017-1.996 0.283-2.609 0.568l-0.243-0.74c-0.503-1.535-1.007-3.069-1.511-4.604l-0.168-0.512-2.645 9.736 0.152 0.059 0.151 0.056 2.372-8.729c0.448 1.365 0.895 2.729 1.341 4.093l0.36 1.093 0.167-0.085c0.577-0.291 1.505-0.636 2.632-0.615h0.013c1.129-0.019 2.051 0.324 2.627 0.615l0.169 0.085 0.357-1.093c0.447-1.364 0.895-2.728 1.343-4.093l2.372 8.729 0.152-0.056 0.151-0.059-2.645-9.736zM8.732 16.057l-0.299 1.096 0.163 0.013 0.164 0.015 0.275-1.007-0.152-0.059-0.151-0.059zM23.26 16.059l-0.151 0.057-0.152 0.059 0.273 1.007 0.164-0.015 0.163-0.012-0.297-1.096zM23.641 17.468l-0.325 0.027 0.276 1.016 0.337 0.016-0.288-1.059z"></path>
<path fill="#000" opacity="0.87" d="M17.273 16.484c-0.189 0-0.343-0.152-0.343-0.339v-2.057c0-0.188 0.153-0.34 0.343-0.34s0.343 0.152 0.343 0.34v2.057c0 0.187-0.153 0.339-0.343 0.339z"></path>
<path fill="#000" opacity="0.87" d="M14.919 16.125c-0.188 0.020-0.357-0.116-0.377-0.303l-0.167-1.552c-0.021-0.187 0.116-0.353 0.305-0.373 0.188-0.020 0.357 0.115 0.376 0.301l0.167 1.553c0.021 0.187-0.116 0.353-0.304 0.373z"></path>
<path fill="#000" opacity="0.87" d="M10.751 16.661c-0.024 0.063-0.085 0.101-0.151 0.101-0.019 0-0.040-0.004-0.059-0.011l-4.005-1.533c-0.084-0.032-0.125-0.125-0.093-0.207 0.033-0.083 0.127-0.123 0.209-0.091l4.007 1.533c0.083 0.032 0.124 0.124 0.092 0.207z"></path>
<path fill="#000" opacity="0.87" d="M10.439 17.48c-0.007 0.083-0.077 0.147-0.16 0.147h-0.015l-4.279-0.355c-0.089-0.007-0.155-0.084-0.147-0.173 0.007-0.087 0.083-0.153 0.173-0.145l4.28 0.355c0.088 0.007 0.155 0.085 0.147 0.172z"></path>
<path fill="#000" opacity="0.87" d="M10.445 18.581c0.003 0.088-0.065 0.163-0.155 0.165l-4.297 0.192c-0.085 0-0.157-0.067-0.16-0.153-0.005-0.089 0.064-0.163 0.152-0.167l4.291-0.191c0.091-0.004 0.164 0.064 0.169 0.153z"></path>
<path fill="#000" opacity="0.87" d="M25.452 15.219l-4.005 1.533c-0.020 0.007-0.039 0.011-0.059 0.011-0.064 0-0.125-0.039-0.151-0.101-0.032-0.083 0.011-0.175 0.093-0.207l1.541-0.592 0.151-0.056 0.151-0.059 2.163-0.827c0.081-0.032 0.176 0.008 0.208 0.091 0.033 0.081-0.009 0.175-0.092 0.207z"></path>
<path fill="#000" opacity="0.87" d="M26.149 17.099c0.007 0.089-0.059 0.167-0.148 0.173l-4.293 0.355c-0.083 0-0.153-0.064-0.16-0.147-0.008-0.087 0.059-0.164 0.148-0.172l4.279-0.355c0.089-0.008 0.168 0.059 0.175 0.145z"></path>
<path fill="#000" opacity="0.87" d="M26.155 18.785c-0.003 0.085-0.075 0.153-0.161 0.153h-0.007l-4.289-0.192c-0.091-0.003-0.16-0.077-0.155-0.165 0.003-0.089 0.077-0.157 0.168-0.153l4.289 0.191c0.091 0.004 0.16 0.077 0.155 0.167z"></path>
<path fill="#fff" d="M20.591 22.531c0.060 0.176 0.115 0.389 0.131 0.635 0.021 0.288-0.016 0.54-0.065 0.737l-0.065-1.372z"></path>
<path fill="#000" opacity="0.87" d="M20.656 24.063c-0.013 0-0.025-0.001-0.039-0.004-0.087-0.021-0.139-0.108-0.117-0.193 0.056-0.228 0.077-0.46 0.061-0.689-0.013-0.199-0.056-0.399-0.123-0.593-0.031-0.083 0.015-0.173 0.099-0.203 0.085-0.028 0.176 0.016 0.205 0.1 0.076 0.221 0.124 0.448 0.14 0.675 0.019 0.263-0.005 0.527-0.071 0.788-0.019 0.071-0.084 0.12-0.156 0.12z"></path>
<path fill="#fff" d="M21.641 22.467c0.099 0.159 0.184 0.349 0.211 0.569 0.032 0.257-0.025 0.483-0.105 0.661l-0.105-1.231z"></path>
<path fill="#000" opacity="0.87" d="M21.747 23.856c-0.023 0-0.044-0.005-0.067-0.015-0.081-0.035-0.117-0.129-0.081-0.211 0.085-0.191 0.116-0.385 0.092-0.576-0.020-0.168-0.084-0.337-0.188-0.505-0.045-0.075-0.023-0.172 0.053-0.219 0.075-0.047 0.175-0.024 0.221 0.052 0.129 0.205 0.208 0.42 0.233 0.633 0.032 0.249-0.008 0.5-0.117 0.745-0.027 0.060-0.085 0.095-0.147 0.095z"></path>
<path fill="#fff" d="M11.4 22.531c-0.061 0.176-0.116 0.389-0.132 0.635-0.020 0.288 0.016 0.54 0.067 0.737l0.065-1.372z"></path>
<path fill="#000" opacity="0.87" d="M11.333 24.063c-0.073 0-0.139-0.049-0.157-0.121-0.064-0.26-0.088-0.524-0.069-0.787 0.015-0.228 0.063-0.455 0.14-0.676 0.029-0.083 0.121-0.128 0.205-0.099 0.084 0.028 0.128 0.119 0.1 0.203-0.068 0.195-0.111 0.393-0.124 0.592-0.016 0.229 0.005 0.463 0.061 0.689 0.021 0.085-0.032 0.172-0.117 0.193-0.013 0.004-0.027 0.005-0.039 0.005z"></path>
<path fill="#fff" d="M10.348 22.467c-0.097 0.159-0.184 0.349-0.211 0.569-0.032 0.257 0.025 0.483 0.107 0.661l0.104-1.231z"></path>
<path fill="#000" opacity="0.87" d="M10.243 23.856c-0.063 0-0.121-0.036-0.148-0.095-0.108-0.245-0.148-0.495-0.117-0.745 0.027-0.213 0.105-0.427 0.233-0.633 0.048-0.076 0.147-0.099 0.223-0.052 0.075 0.047 0.099 0.144 0.052 0.219-0.104 0.168-0.167 0.337-0.188 0.505-0.023 0.191 0.007 0.385 0.092 0.576 0.037 0.081 0 0.176-0.081 0.211-0.021 0.011-0.044 0.015-0.065 0.015z"></path>
<path fill="#000" opacity="0.87" d="M8.284 21.983h-5.681c-0.095 0-0.172-0.060-0.172-0.136 0-0.075 0.077-0.135 0.172-0.135h5.681c0.095 0 0.172 0.060 0.172 0.135 0 0.076-0.077 0.136-0.172 0.136z"></path>
<path fill="#000" opacity="0.87" d="M28.971 22.012h-5.341c-0.089 0-0.161-0.072-0.161-0.16s0.072-0.16 0.161-0.16h5.341c0.088 0 0.161 0.072 0.161 0.16s-0.072 0.16-0.161 0.16z"></path>
<path fill="#000" opacity="0.87" d="M17.636 19.073c-0.116 0.297-0.384 0.621-0.725 0.671-0.316 0.044-0.605-0.123-0.815-0.383-0.020 0.055-0.044 0.111-0.079 0.169-0.051 0.092-0.332 0.551-0.803 0.551h-0.012c-0.447-0.009-0.835-0.412-0.901-0.939-0.012-0.089 0.051-0.169 0.139-0.179 0.088-0.012 0.169 0.051 0.18 0.137 0.052 0.408 0.34 0.656 0.588 0.66h0.007c0.296 0 0.5-0.348 0.523-0.388 0.111-0.197 0.109-0.4 0.088-0.533-0.007-0.025-0.013-0.049-0.019-0.075-0.312 0.036-0.579-0.071-0.628-0.268-0.056-0.224 0.193-0.479 0.557-0.567 0.364-0.089 0.704 0.019 0.76 0.241 0.047 0.185-0.115 0.389-0.376 0.505 0.008 0.031 0.016 0.067 0.023 0.104 0.131 0.429 0.465 0.681 0.723 0.647 0.2-0.029 0.387-0.259 0.469-0.469 0.069-0.18 0.060-0.348 0.039-0.457-0.015-0.085 0.043-0.171 0.131-0.185 0.088-0.016 0.171 0.041 0.187 0.128 0.028 0.151 0.041 0.38-0.055 0.629z"></path>
</svg>
